<?xml version="1.0" encoding="UTF-8"?>
<svg version="1.1" xmlns="http://www.w3.org/2000/svg" width="320" height="132">
<path d="M0 0 C1.67642578 0.01353516 1.67642578 0.01353516 3.38671875 0.02734375 C6.13303462 0.05081654 8.87890472 0.08365272 11.625 0.125 C11.295 1.775 10.965 3.425 10.625 5.125 C9.78521606 5.16258423 9.78521606 5.16258423 8.9284668 5.20092773 C6.38958695 5.31703745 3.85106447 5.4396958 1.3125 5.5625 C0.43142578 5.60181641 -0.44964844 5.64113281 -1.35742188 5.68164062 C-2.20498047 5.72353516 -3.05253906 5.76542969 -3.92578125 5.80859375 C-4.70606689 5.84525146 -5.48635254 5.88190918 -6.2902832 5.91967773 C-8.56829101 6.06625263 -8.56829101 6.06625263 -11.375 7.125 C-11.375 7.785 -11.375 8.445 -11.375 9.125 C-9.69470703 9.28935547 -9.69470703 9.28935547 -7.98046875 9.45703125 C-6.50773778 9.61649893 -5.03508535 9.77669317 -3.5625 9.9375 C-2.82451172 10.00775391 -2.08652344 10.07800781 -1.32617188 10.15039062 C4.17474762 10.77266659 4.17474762 10.77266659 6.63671875 12.69921875 C7.12591797 13.40498047 7.12591797 13.40498047 7.625 14.125 C7.89054687 13.44953125 8.15609375 12.7740625 8.4296875 12.078125 C8.78289062 11.18609375 9.13609375 10.2940625 9.5 9.375 C9.84804687 8.49328125 10.19609375 7.6115625 10.5546875 6.703125 C11.4902291 4.44963063 12.52178567 2.29910003 13.625 0.125 C17.49985635 0.03748587 21.37445643 -0.01556435 25.25 -0.0625 C26.89162109 -0.10020508 26.89162109 -0.10020508 28.56640625 -0.13867188 C38.91321508 -0.23273377 38.91321508 -0.23273377 43.625 3.125 C44.615 4.61 44.615 4.61 45.625 6.125 C46.43904297 5.60099609 46.43904297 5.60099609 47.26953125 5.06640625 C47.98496094 4.61136719 48.70039063 4.15632813 49.4375 3.6875 C50.14519531 3.23503906 50.85289062 2.78257813 51.58203125 2.31640625 C55.12532533 0.25004928 57.93182808 0.00514822 61.94921875 0.02734375 C62.97724609 0.03056641 64.00527344 0.03378906 65.06445312 0.03710938 C66.67223633 0.04967773 66.67223633 0.04967773 68.3125 0.0625 C69.93768555 0.06926758 69.93768555 0.06926758 71.59570312 0.07617188 C74.27219085 0.08796257 76.94856777 0.10441937 79.625 0.125 C79.295 2.435 78.965 4.745 78.625 7.125 C79.49125 6.34125 80.3575 5.5575 81.25 4.75 C87.24826235 -0.67699927 94.39760483 -0.12752405 102 0 C103.53333984 0.01353516 103.53333984 0.01353516 105.09765625 0.02734375 C107.60701522 0.0507957 110.11588336 0.08361645 112.625 0.125 C111.965 1.775 111.305 3.425 110.625 5.125 C108.99691406 5.18107422 108.99691406 5.18107422 107.3359375 5.23828125 C105.89059261 5.30397875 104.44528161 5.37042476 103 5.4375 C102.28714844 5.46005859 101.57429687 5.48261719 100.83984375 5.50585938 C96.11037619 5.74450223 92.75410497 6.59851568 88.625 9.125 C87.04959932 10.85903336 87.04959932 10.85903336 86.625 13.125 C87.12 16.095 87.12 16.095 87.625 19.125 C93.565 19.455 99.505 19.785 105.625 20.125 C104.965 22.105 104.305 24.085 103.625 26.125 C100.79107074 26.20674796 97.95955181 26.26584985 95.125 26.3125 C94.33351563 26.33763672 93.54203125 26.36277344 92.7265625 26.38867188 C86.99786614 26.45910667 82.84999427 25.51208256 77.625 23.125 C75.625 21.125 75.625 21.125 74.625 17.125 C73.635 20.095 72.645 23.065 71.625 26.125 C68.325 26.125 65.025 26.125 61.625 26.125 C62.615 21.67 62.615 21.67 63.625 17.125 C56.70439984 19.41121325 56.70439984 19.41121325 51.125 23.875 C48.15276676 26.55000992 47.19274856 26.44292692 43.3125 26.4375 C40.9921875 26.2828125 40.9921875 26.2828125 38.625 26.125 C39.285 22.495 39.945 18.865 40.625 15.125 C39.614375 15.62 38.60375 16.115 37.5625 16.625 C31.22403421 19.06639822 24.30169128 18.35972743 17.625 18.125 C16.965 20.765 16.305 23.405 15.625 26.125 C12.325 26.125 9.025 26.125 5.625 26.125 C5.625 24.475 5.625 22.825 5.625 21.125 C4.944375 21.57875 4.26375 22.0325 3.5625 22.5 C-3.47419801 26.39264145 -9.9386365 26.38319483 -17.8125 26.25 C-18.83021484 26.24097656 -19.84792969 26.23195313 -20.89648438 26.22265625 C-23.38957156 26.19924698 -25.88215859 26.166457 -28.375 26.125 C-27.715 24.145 -27.055 22.165 -26.375 20.125 C-19.115 19.795 -11.855 19.465 -4.375 19.125 C-4.375 18.135 -4.375 17.145 -4.375 16.125 C-5.41140625 16.08761719 -6.4478125 16.05023438 -7.515625 16.01171875 C-8.88545184 15.94604212 -10.25524191 15.87959536 -11.625 15.8125 C-12.64787109 15.77866211 -12.64787109 15.77866211 -13.69140625 15.74414062 C-17.78643447 15.52547407 -20.50004005 15.16651935 -23.375 12.125 C-23.9375 9.1875 -23.9375 9.1875 -23.375 6.125 C-16.89416894 -0.73705642 -8.76081393 -0.13414674 0 0 Z M21.625 5.125 C20.965 7.765 20.305 10.405 19.625 13.125 C21.04123216 13.17947047 22.45808191 13.21800508 23.875 13.25 C25.05835938 13.28480469 25.05835938 13.28480469 26.265625 13.3203125 C28.87210389 13.10454438 30.43267583 12.53435125 32.625 11.125 C33.43028889 9.07499129 33.43028889 9.07499129 33.625 7.125 C30.42119983 4.98913322 29.60560033 4.89367825 25.9375 5 C24.72513672 5.02707031 24.72513672 5.02707031 23.48828125 5.0546875 C22.87339844 5.07789063 22.25851563 5.10109375 21.625 5.125 Z M54.625 8.125 C52.67401119 11.02574931 52.67401119 11.02574931 51.625 14.125 C51.955 15.115 52.285 16.105 52.625 17.125 C53.264375 16.526875 53.90375 15.92875 54.5625 15.3125 C58.37040646 12.59256681 62.16454137 11.40774627 66.625 10.125 C66.955 8.475 67.285 6.825 67.625 5.125 C60.58986093 4.70391664 60.58986093 4.70391664 54.625 8.125 Z M6.625 18.125 C7.625 20.125 7.625 20.125 7.625 20.125 Z " fill="#252069" transform="translate(177.375,38.875)"/>
<path d="M0 0 C12.54 0 25.08 0 38 0 C38.04125 4.516875 38.0825 9.03375 38.125 13.6875 C38.14320801 15.10377686 38.16141602 16.52005371 38.18017578 17.97924805 C38.1851709 19.10371338 38.19016602 20.22817871 38.1953125 21.38671875 C38.21102295 23.10701294 38.21102295 23.10701294 38.22705078 24.86206055 C38.00058489 27.99191655 37.33456032 30.18079905 36 33 C36.61875 33.268125 37.2375 33.53625 37.875 33.8125 C40 35 40 35 42 38 C42.07676128 40.84016733 41.51754359 42.40617108 39.6484375 44.55078125 C32.17133132 51.43040178 24.79527202 52.6713149 14.84375 52.4921875 C7.90178881 51.60327783 0.58204483 48.5044045 -4 43 C-4.5 40.6875 -4.5 40.6875 -4 38 C-2.83984375 36.44921875 -2.83984375 36.44921875 -1.4375 34.875 C-0.633125 33.92625 0.17125 32.9775 1 32 C0.67 31.01 0.34 30.02 0 29 C-0.08358958 26.78910055 -0.10731764 24.57573922 -0.09765625 22.36328125 C-0.09515869 21.19321533 -0.09266113 20.02314941 -0.09008789 18.81762695 C-0.08098389 17.33093506 -0.07187988 15.84424316 -0.0625 14.3125 C-0.041875 9.589375 -0.02125 4.86625 0 0 Z M30 40 C29.01 41.485 29.01 41.485 28 43 C29.32 42.34 30.64 41.68 32 41 C31.34 40.67 30.68 40.34 30 40 Z M6 41 C6.99 41.99 7.98 42.98 9 44 C9.66 43.67 10.32 43.34 11 43 C10.34 42.34 9.68 41.68 9 41 C8.01 41 7.02 41 6 41 Z " fill="#6D6443" transform="translate(4,39)"/>
<path d="M0 0 C12.54 0 25.08 0 38 0 C38 4.95 38 9.9 38 15 C25.46 15 12.92 15 0 15 C0 10.05 0 5.1 0 0 Z " fill="#AE5C1B" transform="translate(4,39)"/>
<path d="M0 0 C0.92232422 0.00902344 1.84464844 0.01804688 2.79492188 0.02734375 C5.05105809 0.0507234 7.30663684 0.08349084 9.5625 0.125 C9.2325 1.775 8.9025 3.425 8.5625 5.125 C6.80873047 5.18107422 6.80873047 5.18107422 5.01953125 5.23828125 C3.47132325 5.3039628 1.92314758 5.37040939 0.375 5.4375 C-0.39392578 5.46005859 -1.16285156 5.48261719 -1.95507812 5.50585938 C-2.70595703 5.54130859 -3.45683594 5.57675781 -4.23046875 5.61328125 C-5.25950317 5.65255737 -5.25950317 5.65255737 -6.30932617 5.69262695 C-9.07950619 6.1322716 -9.07950619 6.1322716 -13.4375 9.125 C-6.8375 9.455 -0.2375 9.785 6.5625 10.125 C6.2325 11.775 5.9025 13.425 5.5625 15.125 C-1.6975 15.125 -8.9575 15.125 -16.4375 15.125 C-16.1075 16.445 -15.7775 17.765 -15.4375 19.125 C-9.1675 19.455 -2.8975 19.785 3.5625 20.125 C2.9025 22.105 2.2425 24.085 1.5625 26.125 C-1.29192753 26.17937005 -4.14530076 26.21884974 -7 26.25 C-7.79986328 26.26675781 -8.59972656 26.28351563 -9.42382812 26.30078125 C-15.05552647 26.3467543 -20.5371431 26.15524983 -25.3125 22.8125 C-27.23590597 19.92739104 -27.738474 17.67469592 -27.0703125 14.234375 C-25.37651614 8.75567568 -22.41075439 5.01685533 -17.4375 2.125 C-11.58139654 -0.07196657 -6.20704296 -0.11618655 0 0 Z " fill="#252069" transform="translate(310.4375,38.875)"/>
<path d="M0 0 C3.3 0 6.6 0 10 0 C8.68 4.29 7.36 8.58 6 13 C6.845625 12.360625 7.69125 11.72125 8.5625 11.0625 C11.90728565 8.8033727 14.97396992 8.32208241 19 8 C19.66 5.36 20.32 2.72 21 0 C24.3 0 27.6 0 31 0 C24.53191489 22.46808511 24.53191489 22.46808511 22 25 C20.48071962 25.07179964 18.95832518 25.08392007 17.4375 25.0625 C16.61121094 25.05347656 15.78492187 25.04445313 14.93359375 25.03515625 C13.97646484 25.01775391 13.97646484 25.01775391 13 25 C13.60990891 21.44219804 14.5783681 18.3171411 16 15 C10.06278626 16.59101806 6.02876179 18.08994657 2 23 C1.67 23.66 1.34 24.32 1 25 C-1.97 25 -4.94 25 -8 25 C-6.43889635 16.25781959 -3.21518143 8.24016625 0 0 Z " fill="#9B9A99" transform="translate(60,39)"/>
<path d="M0 0 C2.97 0 5.94 0 9 0 C8.80664062 0.61746094 8.61328125 1.23492187 8.4140625 1.87109375 C6.67003849 7.54348868 5.21782106 13.19193035 4 19 C5.60504196 18.96687531 7.20936059 18.8973586 8.8125 18.8125 C10.15248047 18.76029297 10.15248047 18.76029297 11.51953125 18.70703125 C14.16757093 18.21596626 14.16757093 18.21596626 15.65625 15.875 C17.14604739 12.68752651 18.45563818 9.4835627 19.6875 6.1875 C20.12449219 5.02605469 20.56148437 3.86460938 21.01171875 2.66796875 C21.33785156 1.78753906 21.66398437 0.90710937 22 0 C24.97 0 27.94 0 31 0 C25.83086017 18.75771196 25.83086017 18.75771196 19 24 C12.42684308 26.70659403 4.74197961 27.20100246 -2.0625 24.9375 C-5 23 -5 23 -5.8671875 19.90625 C-6.02956211 15.13052614 -4.87992314 11.90920347 -3.0625 7.5625 C-2.77181641 6.83095703 -2.48113281 6.09941406 -2.18164062 5.34570312 C-1.46888433 3.55797011 -0.73643245 1.77811082 0 0 Z " fill="#9B9A99" transform="translate(124,39)"/>
<path d="M0 0 C1.23556641 0.01740234 1.23556641 0.01740234 2.49609375 0.03515625 C3.32238281 0.04417969 4.14867188 0.05320313 5 0.0625 C5.63808594 0.07410156 6.27617188 0.08570313 6.93359375 0.09765625 C6.60359375 2.40765625 6.27359375 4.71765625 5.93359375 7.09765625 C6.52785156 6.59234375 7.12210938 6.08703125 7.734375 5.56640625 C14.23840423 0.46838023 18.73125794 -0.88475279 26.93359375 0.09765625 C23.99431886 3.24588433 20.94791595 5.5522347 17.30859375 7.84765625 C16.34695312 8.46125 15.3853125 9.07484375 14.39453125 9.70703125 C11.93359375 11.09765625 11.93359375 11.09765625 9.93359375 11.09765625 C10.86960621 12.51530619 11.80747295 13.93173193 12.74609375 15.34765625 C13.26816406 16.1365625 13.79023437 16.92546875 14.328125 17.73828125 C15.37981861 19.28383584 16.48087664 20.79717185 17.6328125 22.26953125 C18.93359375 24.09765625 18.93359375 24.09765625 18.93359375 26.09765625 C15.44890395 26.66558356 12.39669107 26.86667496 8.93359375 26.09765625 C6.00174307 23.45435327 3.95570594 20.47230705 1.93359375 17.09765625 C0.61359375 19.73765625 -0.70640625 22.37765625 -2.06640625 25.09765625 C-5.03640625 25.09765625 -8.00640625 25.09765625 -11.06640625 25.09765625 C-3.89430485 0.18404087 -3.89430485 0.18404087 0 0 Z " fill="#9B9A99" transform="translate(96.06640625,38.90234375)"/>
<path d="M0 0 C0.61875 0.33 1.2375 0.66 1.875 1 C5.59611633 2.19075723 8.72267706 2.10998217 12.59765625 1.97265625 C14.91193354 1.99899762 16.7718262 2.43923466 19 3 C19.33 2.67 19.66 2.34 20 2 C21.68608966 1.92794489 23.37500659 1.91613932 25.0625 1.9375 C25.98160156 1.94652344 26.90070312 1.95554687 27.84765625 1.96484375 C28.55792969 1.97644531 29.26820312 1.98804687 30 2 C24.59067358 8.9119171 24.59067358 8.9119171 21 10 C16.21409763 10.50913855 13.98978581 9.51986472 10 7 C8.68 7 7.36 7 6 7 C6.66 7.33 7.32 7.66 8 8 C8 8.66 8 9.32 8 10 C14.27 10 20.54 10 27 10 C27 9.34 27 8.68 27 8 C28.32 7.67 29.64 7.34 31 7 C31.33 5.02 31.66 3.04 32 1 C33.32 0.67 34.64 0.34 36 0 C36 0.99 36 1.98 36 3 C36.66 2.34 37.32 1.68 38 1 C40 4 40 4 40.125 6.3125 C38.00595432 11.37466467 33.13242133 14.12089594 28.1953125 16.15625 C21.29389528 17.97862912 12.47379765 18.33230672 5.6875 15.8125 C2.67397899 13.78012537 1.85017315 12.49515628 1 9 C0.01 9 -0.98 9 -2 9 C-2.66 8.34 -3.32 7.68 -4 7 C-3.68134222 3.70720291 -2.45484649 2.13464912 0 0 Z " fill="#7D6A5E" transform="translate(5,74)"/>
<path d="M0 0 C1.66611905 -0.042721 3.33382885 -0.04063832 5 0 C5.33 0.33 5.66 0.66 6 1 C8.01594582 1.23427778 10.038474 1.41336124 12.0625 1.5625 C13.16722656 1.64628906 14.27195313 1.73007813 15.41015625 1.81640625 C16.26480469 1.87699219 17.11945313 1.93757813 18 2 C18 1.34 18 0.68 18 0 C21 1 21 1 22 2 C24.18639453 2.07258946 26.37500389 2.08373783 28.5625 2.0625 C29.76003906 2.05347656 30.95757812 2.04445313 32.19140625 2.03515625 C33.58166016 2.01775391 33.58166016 2.01775391 35 2 C35 1.34 35 0.68 35 0 C35.66 0 36.32 0 37 0 C37.495 1.485 37.495 1.485 38 3 C38.70125 2.835 39.4025 2.67 40.125 2.5 C43.14828054 1.97421208 45.93672161 1.93340699 49 2 C49.99 2 50.98 2 52 2 C53.33981486 2.3062434 54.67511887 2.63451555 56 3 C56 4.98 56 6.96 56 9 C53.36 9 50.72 9 48 9 C47.505 7.02 47.505 7.02 47 5 C46.67 6.32 46.34 7.64 46 9 C34.33333333 9 22.66666667 9 11 9 C10.34 7.68 9.68 6.36 9 5 C8.67 6.32 8.34 7.64 8 9 C7.34 9 6.68 9 6 9 C5.67 8.01 5.34 7.02 5 6 C4.01 6 3.02 6 2 6 C2 6.99 2 7.98 2 9 C1.34 9 0.68 9 0 9 C0 6.03 0 3.06 0 0 Z M2 2 C2 2.66 2 3.32 2 4 C2.66 3.67 3.32 3.34 4 3 C3.34 2.67 2.68 2.34 2 2 Z M13 4 C12.67 4.99 12.34 5.98 12 7 C12.99 6.67 13.98 6.34 15 6 C14.34 5.34 13.68 4.68 13 4 Z M40 4 C40 4.99 40 5.98 40 7 C40.66 7 41.32 7 42 7 C41.67 6.01 41.34 5.02 41 4 C40.67 4 40.34 4 40 4 Z M23 6 C23 6.33 23 6.66 23 7 C24.65 7 26.3 7 28 7 C28 6.67 28 6.34 28 6 C26.35 6 24.7 6 23 6 Z " fill="#1D1D1B" transform="translate(126,82)"/>
<path d="M0 0 C1.65 0 3.3 0 5 0 C5 0.66 5 1.32 5 2 C4.01 2 3.02 2 2 2 C2 2.66 2 3.32 2 4 C2.5775 3.67 3.155 3.34 3.75 3 C6 2 6 2 10 2 C10 1.34 10 0.68 10 0 C10.66 0 11.32 0 12 0 C12 0.66 12 1.32 12 2 C12.66 2 13.32 2 14 2 C14 3.65 14 5.3 14 7 C14.66 7 15.32 7 16 7 C16 5.35 16 3.7 16 2 C18.07304916 2 20.146741 2.00465024 22.21875 2.0703125 C22.9715625 2.08835937 23.724375 2.10640625 24.5 2.125 C25.2528125 2.14820312 26.005625 2.17140625 26.78125 2.1953125 C29.28019545 1.97533491 30.79447052 1.14796002 33 0 C33.99 0 34.98 0 36 0 C36.495 0.99 36.495 0.99 37 2 C39.47608101 2.74524194 39.47608101 2.74524194 42 3 C42.33 2.67 42.66 2.34 43 2 C45.5 1.875 45.5 1.875 48 2 C49 3 49 3 49.0625 6.0625 C49.041875 7.031875 49.02125 8.00125 49 9 C48.34 9 47.68 9 47 9 C47 7.35 47 5.7 47 4 C46.34 4 45.68 4 45 4 C45 5.65 45 7.3 45 9 C30.15 9 15.3 9 0 9 C0 6.03 0 3.06 0 0 Z M8 4 C8 4.99 8 5.98 8 7 C8.66 6.34 9.32 5.68 10 5 C9.34 4.67 8.68 4.34 8 4 Z M21 4 C21 4.99 21 5.98 21 7 C21.66 7 22.32 7 23 7 C23.33 6.01 23.66 5.02 24 4 C23.01 4 22.02 4 21 4 Z M32 4 C32 4.99 32 5.98 32 7 C32.66 7 33.32 7 34 7 C34 6.01 34 5.02 34 4 C33.34 4 32.68 4 32 4 Z M39 4 C38.67 4.99 38.34 5.98 38 7 C38.66 7 39.32 7 40 7 C39.67 6.01 39.34 5.02 39 4 Z M2 5 C2 5.66 2 6.32 2 7 C2.99 7 3.98 7 5 7 C5 6.34 5 5.68 5 5 C4.01 5 3.02 5 2 5 Z " fill="#1D1D1B" transform="translate(269,82)"/>
<path d="M0 0 C0.95003906 -0.00257812 1.90007813 -0.00515625 2.87890625 -0.0078125 C5.4375 0.125 5.4375 0.125 8.4375 1.125 C8.4375 6.075 8.4375 11.025 8.4375 16.125 C2.4975 16.125 -3.4425 16.125 -9.5625 16.125 C-9.5625 13.155 -9.5625 10.185 -9.5625 7.125 C-7.2525 7.125 -4.9425 7.125 -2.5625 7.125 C-2.5625 5.805 -2.5625 4.485 -2.5625 3.125 C-3.5525 3.125 -4.5425 3.125 -5.5625 3.125 C-5.8925 4.115 -6.2225 5.105 -6.5625 6.125 C-6.8925 5.465 -7.2225 4.805 -7.5625 4.125 C-8.2225 4.785 -8.8825 5.445 -9.5625 6.125 C-9.5625 4.475 -9.5625 2.825 -9.5625 1.125 C-6.31934218 0.15895299 -3.37741334 -0.00919024 0 0 Z " fill="#F9F9F8" transform="translate(23.5625,55.875)"/>
<path d="M0 0 C11.88 0 23.76 0 36 0 C36 12.375 36 12.375 34 16.1875 C33.62875 16.92355469 33.2575 17.65960938 32.875 18.41796875 C32.58625 18.94003906 32.2975 19.46210937 32 20 C31.67 20 31.34 20 31 20 C31 14.06 31 8.12 31 2 C22.42 2 13.84 2 5 2 C5 7.94 5 13.88 5 20 C2 17 2 17 0 12 C0 8.04 0 4.08 0 0 Z " fill="#5785B8" transform="translate(5,55)"/>
<path d="M0 0 C0.66 0 1.32 0 2 0 C2.33 0.99 2.66 1.98 3 3 C3.99 2.67 4.98 2.34 6 2 C6.99 2 7.98 2 9 2 C9 3.32 9 4.64 9 6 C5.98968256 6.93423645 5.13349732 7.04449911 2 6 C2 8.97 2 11.94 2 15 C2.96421875 14.91621094 3.9284375 14.83242187 4.921875 14.74609375 C6.18515625 14.64425781 7.4484375 14.54242188 8.75 14.4375 C10.00296875 14.33308594 11.2559375 14.22867188 12.546875 14.12109375 C16 14 16 14 20 15 C20 10.05 20 5.1 20 0 C20.99 0 21.98 0 23 0 C23 5.94 23 11.88 23 18 C15 18 7 18 -1 18 C-1.02684312 15.18743719 -1.04676188 12.37512759 -1.0625 9.5625 C-1.07087891 8.76005859 -1.07925781 7.95761719 -1.08789062 7.13085938 C-1.0965143 5.08704779 -1.0522815 3.04316098 -1 1 C-0.67 0.67 -0.34 0.34 0 0 Z " fill="#C9922A" transform="translate(12,57)"/>
<path d="M0 0 C12.54 0 25.08 0 38 0 C38 4.95 38 9.9 38 15 C31.73 15 25.46 15 19 15 C19 14.67 19 14.34 19 14 C20.98 14 22.96 14 25 14 C25 13.01 25 12.02 25 11 C27.97 11 30.94 11 34 11 C33.505 8.03 33.505 8.03 33 5 C31.02 4.34 29.04 3.68 27 3 C27 2.67 27 2.34 27 2 C25.87722656 2.01160156 24.75445313 2.02320313 23.59765625 2.03515625 C15.98693084 2.08951251 8.5499693 2.09817735 1 1 C1 1.66 1 2.32 1 3 C1.66 3.33 2.32 3.66 3 4 C2.34 4 1.68 4 1 4 C1 4.66 1 5.32 1 6 C1.66 6 2.32 6 3 6 C2.67 8.64 2.34 11.28 2 14 C2.66 14.33 3.32 14.66 4 15 C2.68 15 1.36 15 0 15 C0 10.05 0 5.1 0 0 Z " fill="#B75C19" transform="translate(4,39)"/>
<path d="M0 0 C1.37086915 1.29470975 2.71340837 2.62150897 4 4 C3.67 4.33 3.34 4.66 3 5 C2.95936168 6.66617115 2.957279 8.33388095 3 10 C2.67 9.34 2.34 8.68 2 8 C-0.97 8 -3.94 8 -7 8 C-7 8.99 -7 9.98 -7 11 C-9.97 11 -12.94 11 -16 11 C-16 10.34 -16 9.68 -16 9 C-14.35 9 -12.7 9 -11 9 C-11 8.34 -11 7.68 -11 7 C-10.01 7 -9.02 7 -8 7 C-8 6.34 -8 5.68 -8 5 C-8.53109375 5.22816406 -9.0621875 5.45632812 -9.609375 5.69140625 C-10.66898438 6.12259766 -10.66898438 6.12259766 -11.75 6.5625 C-12.44609375 6.85253906 -13.1421875 7.14257812 -13.859375 7.44140625 C-16.30012784 8.07831803 -17.6403655 7.80248831 -20 7 C-19 4 -19 4 -17 2 C-15.01178687 1.60235737 -13.01055661 1.26224651 -11 1 C-12.98 1 -14.96 1 -17 1 C-16 -1 -16 -1 -14.4375 -1.625 C-9.50522035 -2.38381225 -4.24284715 -3.03060511 0 0 Z " fill="#BD821C" transform="translate(36,42)"/>
<path d="M0 0 C1.65 0 3.3 0 5 0 C5 0.66 5 1.32 5 2 C4.01 2.495 4.01 2.495 3 3 C5.42797311 3 7.62907005 2.49914315 10 2 C10 1.34 10 0.68 10 0 C10.66 0 11.32 0 12 0 C12 0.66 12 1.32 12 2 C12.61488281 2 13.22976562 2 13.86328125 2 C24.375 2 24.375 2 29 3 C29 4.65 29 6.3 29 8 C24.03926578 9.32286246 19.08888488 9.08893197 14 9 C13.67 7.68 13.34 6.36 13 5 C12.67 6.32 12.34 7.64 12 9 C7.71 9 3.42 9 -1 9 C-1 8.34 -1 7.68 -1 7 C-0.34 6.67 0.32 6.34 1 6 C0.34 5.34 -0.32 4.68 -1 4 C-0.625 1.875 -0.625 1.875 0 0 Z M7 4 C7 4.99 7 5.98 7 7 C7.99 7 8.98 7 10 7 C10 6.01 10 5.02 10 4 C9.01 4 8.02 4 7 4 Z M19 4 C18.67 4.99 18.34 5.98 18 7 C18.99 6.67 19.98 6.34 21 6 C20.34 5.34 19.68 4.68 19 4 Z M25 4 C25 4.99 25 5.98 25 7 C25.66 7 26.32 7 27 7 C27 6.01 27 5.02 27 4 C26.34 4 25.68 4 25 4 Z " fill="#1D1D1B" transform="translate(78,82)"/>
<path d="M0 0 C0.78375 0.04125 1.5675 0.0825 2.375 0.125 C2.705 0.785 3.035 1.445 3.375 2.125 C5.81287385 1.9840651 8.25017853 1.83745458 10.6875 1.6875 C11.37779297 1.64818359 12.06808594 1.60886719 12.77929688 1.56835938 C15.84661535 1.37572585 18.44468152 1.10177283 21.375 0.125 C21.375 3.095 21.375 6.065 21.375 9.125 C18.405 9.125 15.435 9.125 12.375 9.125 C12.045 8.135 11.715 7.145 11.375 6.125 C11.045 7.115 10.715 8.105 10.375 9.125 C8.25006859 9.15193575 6.12504088 9.17136628 4 9.1875 C2.81664062 9.19910156 1.63328125 9.21070312 0.4140625 9.22265625 C-2.625 9.125 -2.625 9.125 -4.625 8.125 C-4.75 5.25 -4.75 5.25 -4.625 2.125 C-2.625 0.125 -2.625 0.125 0 0 Z M-0.625 2.125 C-1.615 2.62 -1.615 2.62 -2.625 3.125 C-2.295 4.445 -1.965 5.765 -1.625 7.125 C-0.635 7.125 0.355 7.125 1.375 7.125 C1.705 5.805 2.035 4.485 2.375 3.125 C1.385 2.795 0.395 2.465 -0.625 2.125 Z M4.375 4.125 C4.375 5.115 4.375 6.105 4.375 7.125 C5.035 7.125 5.695 7.125 6.375 7.125 C6.045 6.135 5.715 5.145 5.375 4.125 C5.045 4.125 4.715 4.125 4.375 4.125 Z M18.375 4.125 C19.375 7.125 19.375 7.125 19.375 7.125 Z " fill="#1D1D1B" transform="translate(214.625,81.875)"/>
<path d="M0 0 C0 0.99 0 1.98 0 3 C0.66 2.34 1.32 1.68 2 1 C4 4 4 4 3.8125 6.5 C2.90026664 9.30687187 2.26074342 10.15251076 0 12 C-2.7421875 13.203125 -2.7421875 13.203125 -5.875 14.25 C-6.90367188 14.60578125 -7.93234375 14.9615625 -8.9921875 15.328125 C-12.10970698 16.02450598 -13.96174682 15.87447878 -17 15 C-16.375 13.0625 -16.375 13.0625 -15 11 C-11.875 10.25 -11.875 10.25 -9 10 C-9 9.34 -9 8.68 -9 8 C-7.68 7.67 -6.36 7.34 -5 7 C-4.87625 6.030625 -4.7525 5.06125 -4.625 4.0625 C-4.41875 3.051875 -4.2125 2.04125 -4 1 C-2 0 -2 0 0 0 Z " fill="#B3ADA9" transform="translate(41,74)"/>
<path d="M0 0 C1.58323688 -0.027193 3.16661062 -0.04648306 4.75 -0.0625 C6.07257812 -0.07990234 6.07257812 -0.07990234 7.421875 -0.09765625 C9.78259788 -0.00823493 11.72504136 0.43126034 14 1 C14.33 0.67 14.66 0.34 15 0 C16.68608966 -0.07205511 18.37500659 -0.08386068 20.0625 -0.0625 C20.98160156 -0.05347656 21.90070312 -0.04445313 22.84765625 -0.03515625 C23.55792969 -0.02355469 24.26820312 -0.01195313 25 0 C19.59067358 6.9119171 19.59067358 6.9119171 16 8 C11.21693829 8.50883635 8.97504734 7.54810727 5 5 C2.30745009 4.29329272 2.30745009 4.29329272 0 4 C0 2.68 0 1.36 0 0 Z " fill="#42A379" transform="translate(10,76)"/>
<path d="M0 0 C0.66 0 1.32 0 2 0 C2 2.97 2 5.94 2 9 C-0.97 9 -3.94 9 -7 9 C-7.33 7.68 -7.66 6.36 -8 5 C-8.33 6.32 -8.66 7.64 -9 9 C-11.64 9 -14.28 9 -17 9 C-17 7.02 -17 5.04 -17 3 C-13.25854164 2.11965686 -9.83821427 1.91656056 -6 2 C-5.01 2 -4.02 2 -3 2 C-2.01 2 -1.02 2 0 2 C0 1.34 0 0.68 0 0 Z M-2 4 C-2 4.99 -2 5.98 -2 7 C-1.34 7 -0.68 7 0 7 C-0.33 6.01 -0.66 5.02 -1 4 C-1.33 4 -1.66 4 -2 4 Z " fill="#1D1D1B" transform="translate(205,82)"/>
<path d="M0 0 C1.258125 -0.020625 2.51625 -0.04125 3.8125 -0.0625 C4.52019531 -0.07410156 5.22789062 -0.08570312 5.95703125 -0.09765625 C8 0 8 0 11 1 C10.979375 1.969375 10.95875 2.93875 10.9375 3.9375 C10.64381501 6.87465895 10.64381501 6.87465895 12 8 C11.67 8.99 11.34 9.98 11 11 C10.195625 10.814375 9.39125 10.62875 8.5625 10.4375 C7.716875 10.293125 6.87125 10.14875 6 10 C5.67 10.33 5.34 10.66 5 11 C3.35 11 1.7 11 0 11 C0 7.37 0 3.74 0 0 Z " fill="#1D1D1B" transform="translate(306,68)"/>
<path d="M0 0 C0.71470459 -0.00451172 1.42940918 -0.00902344 2.16577148 -0.01367188 C5.24189137 -0.0047394 7.6208155 0.1444385 10.5625 1.125 C10.616848 3.1872048 10.65544961 5.24982816 10.6875 7.3125 C10.71070313 8.46105469 10.73390625 9.60960937 10.7578125 10.79296875 C10.56734152 14.04240372 9.95610127 16.21160521 8.5625 19.125 C9.18125 19.393125 9.8 19.66125 10.4375 19.9375 C12.5625 21.125 12.5625 21.125 14.5625 24.125 C14.1875 26.3125 14.1875 26.3125 13.5625 28.125 C12.9025 26.805 12.2425 25.485 11.5625 24.125 C10.5725 24.455 9.5825 24.785 8.5625 25.125 C8.8925 23.805 9.2225 22.485 9.5625 21.125 C8.2425 21.455 6.9225 21.785 5.5625 22.125 C5.76746094 21.60292969 5.97242188 21.08085938 6.18359375 20.54296875 C8.57744542 14.00282854 8.89378024 9.4809174 9.5625 2.125 C-2.3175 2.125 -14.1975 2.125 -26.4375 2.125 C-25.76381409 11.22818417 -25.76381409 11.22818417 -24.4375 20.125 C-26.4375 19.125 -26.4375 19.125 -27.05859375 17.515625 C-27.57119428 14.28148557 -27.53030305 11.14772949 -27.5 7.875 C-27.49097656 6.61171875 -27.48195313 5.3484375 -27.47265625 4.046875 C-27.46105469 3.08265625 -27.44945312 2.1184375 -27.4375 1.125 C-18.29298387 0.52606093 -9.16645401 0.02399857 0 0 Z " fill="#55513B" transform="translate(31.4375,52.875)"/>
<path d="M0 0 C3.50935186 0 6.56484998 0.37542727 10 1 C10 3.64 10 6.28 10 9 C6.36576791 11.32590854 3.22911669 11.16265833 -1 11 C-2.23076923 4.6 -2.23076923 4.6 -1.0625 1.5625 C-0.711875 1.046875 -0.36125 0.53125 0 0 Z " fill="#1D1D1B" transform="translate(251,68)"/>
<path d="M0 0 C8.75 -0.125 8.75 -0.125 11 1 C11.86159454 4.23097953 12.30597523 6.22486274 11.0625 9.375 C10.711875 9.91125 10.36125 10.4475 10 11 C8.02 11 6.04 11 4 11 C3.67 10.34 3.34 9.68 3 9 C2.67 9.66 2.34 10.32 2 11 C1.34 11 0.68 11 0 11 C0 7.37 0 3.74 0 0 Z " fill="#1D1D1B" transform="translate(80,68)"/>
<path d="M0 0 C4.62 0 9.24 0 14 0 C13.67 0.66 13.34 1.32 13 2 C10.36 2 7.72 2 5 2 C5 7.94 5 13.88 5 20 C1.36564805 16.36564805 0.12615768 14.01095342 -0.1953125 8.88671875 C-0.13020833 5.92447917 -0.06510417 2.96223958 0 0 Z " fill="#42AF81" transform="translate(5,55)"/>
<path d="M0 0 C0.86625 0.2784375 0.86625 0.2784375 1.75 0.5625 C4.22600969 1.04394633 5.60194629 0.63948099 8 0 C8.66 0.33 9.32 0.66 10 1 C11.10868317 4.32604951 11.54177532 7.53058454 12 11 C8.04 11 4.08 11 0 11 C0.66 9.35 1.32 7.7 2 6 C1.34 6 0.68 6 0 6 C0 4 0 2 0 0 Z " fill="#1D1D1B" transform="translate(221,68)"/>
<path d="M0 0 C2.01822917 0.06510417 4.03645833 0.13020833 6.0546875 0.1953125 C6.3846875 2.5053125 6.7146875 4.8153125 7.0546875 7.1953125 C6.3946875 7.1953125 5.7346875 7.1953125 5.0546875 7.1953125 C5.0546875 8.5153125 5.0546875 9.8353125 5.0546875 11.1953125 C2.4146875 11.1953125 -0.2253125 11.1953125 -2.9453125 11.1953125 C-2.6153125 9.8753125 -2.2853125 8.5553125 -1.9453125 7.1953125 C-2.6053125 7.1953125 -3.2653125 7.1953125 -3.9453125 7.1953125 C-4.0703125 4.8203125 -4.0703125 4.8203125 -3.9453125 2.1953125 C-1.9453125 0.1953125 -1.9453125 0.1953125 0 0 Z " fill="#1D1D1B" transform="translate(55.9453125,67.8046875)"/>
<path d="M0 0 C2.97 0 5.94 0 9 0 C9.144375 1.093125 9.28875 2.18625 9.4375 3.3125 C9.88288104 6.93122987 9.88288104 6.93122987 11 10 C7.25 11.125 7.25 11.125 5 10 C4.67 10.66 4.34 11.32 4 12 C4 11.34 4 10.68 4 10 C2.35 10.33 0.7 10.66 -1 11 C-1.0270043 9.54176788 -1.04639787 8.08339325 -1.0625 6.625 C-1.07410156 5.81289062 -1.08570313 5.00078125 -1.09765625 4.1640625 C-1 2 -1 2 0 0 Z " fill="#1D1D1B" transform="translate(194,68)"/>
<path d="M0 0 C0 2.64 0 5.28 0 8 C-0.66 8 -1.32 8 -2 8 C-2 8.66 -2 9.32 -2 10 C-7.625 10.25 -7.625 10.25 -11 8 C-11.40843923 5.28796348 -11.13336867 2.7562858 -11 0 C-7.18243176 -1.37432457 -3.92744671 -0.67975039 0 0 Z " fill="#1D1D1B" transform="translate(176,69)"/>
<path d="M0 0 C3.3 0 6.6 0 10 0 C10.33 2.97 10.66 5.94 11 9 C9.35 9 7.7 9 6 9 C6 9.66 6 10.32 6 11 C3 10 3 10 0 8 C-0.40843923 5.28796348 -0.13336867 2.7562858 0 0 Z " fill="#1D1D1B" transform="translate(137,68)"/>
<path d="M0 0 C0.66 0 1.32 0 2 0 C2 2.97 2 5.94 2 9 C-1.63 9 -5.26 9 -9 9 C-9.33 7.68 -9.66 6.36 -10 5 C-10.33 6.32 -10.66 7.64 -11 9 C-11.66 9 -12.32 9 -13 9 C-13 6.69 -13 4.38 -13 2 C-10.36 2 -7.72 2 -5 2 C-4.67 3.32 -4.34 4.64 -4 6 C-3.67 4.68 -3.34 3.36 -3 2 C-2.01 2 -1.02 2 0 2 C0 1.34 0 0.68 0 0 Z " fill="#1D1D1B" transform="translate(250,82)"/>
<path d="M0 0 C3 0 6 0 9 0 C9.12375 0.969375 9.2475 1.93875 9.375 2.9375 C9.58125 3.948125 9.7875 4.95875 10 6 C10.66 6.33 11.32 6.66 12 7 C12 4.69 12 2.38 12 0 C12.66 0 13.32 0 14 0 C14.09765625 6.15234375 14.09765625 6.15234375 14 8 C13 9 13 9 11.07421875 9.09765625 C9.89279297 9.08025391 9.89279297 9.08025391 8.6875 9.0625 C7.90761719 9.05347656 7.12773438 9.04445313 6.32421875 9.03515625 C5.55722656 9.02355469 4.79023437 9.01195313 4 9 C2.68 9 1.36 9 0 9 C0 6.03 0 3.06 0 0 Z M6 2 C5.01 3.485 5.01 3.485 4 5 C5.485 5.99 5.485 5.99 7 7 C7 5.35 7 3.7 7 2 C6.67 2 6.34 2 6 2 Z " fill="#1D1D1B" transform="translate(60,82)"/>
<path d="M0 0 C2.97 0 5.94 0 9 0 C9.33 2.97 9.66 5.94 10 9 C8.35 9 6.7 9 5 9 C5 9.66 5 10.32 5 11 C2 10 2 10 -1 8 C-0.67 5.36 -0.34 2.72 0 0 Z " fill="#1D1D1B" transform="translate(279,68)"/>
<path d="M0 0 C0 3.3 0 6.6 0 10 C-1.32 10 -2.64 10 -4 10 C-3.67 10.66 -3.34 11.32 -3 12 C-2.01 12 -1.02 12 0 12 C0 12.99 0 13.98 0 15 C-2.64 15.33 -5.28 15.66 -8 16 C-8 13.03 -8 10.06 -8 7 C-5.69 7 -3.38 7 -1 7 C-1 5.68 -1 4.36 -1 3 C-1.99 3 -2.98 3 -4 3 C-4.33 3.99 -4.66 4.98 -5 6 C-5.33 5.34 -5.66 4.68 -6 4 C-6.66 4.66 -7.32 5.32 -8 6 C-8 4.35 -8 2.7 -8 1 C-5.10765685 0.17361624 -3.11257569 0 0 0 Z " fill="#FAF9F9" transform="translate(22,56)"/>
<path d="M0 0 C12.54 0 25.08 0 38 0 C38 4.95 38 9.9 38 15 C37.67 15 37.34 15 37 15 C37 10.38 37 5.76 37 1 C35.88625 1.165 34.7725 1.33 33.625 1.5 C22.91123885 2.69041791 11.65801652 2.57896541 1 1 C1 1.66 1 2.32 1 3 C1.66 3.33 2.32 3.66 3 4 C2.34 4 1.68 4 1 4 C1 4.66 1 5.32 1 6 C1.66 6 2.32 6 3 6 C2.67 8.64 2.34 11.28 2 14 C2.66 14.33 3.32 14.66 4 15 C2.68 15 1.36 15 0 15 C0 10.05 0 5.1 0 0 Z " fill="#903A12" transform="translate(4,39)"/>
<path d="M0 0 C4.62 0 9.24 0 14 0 C14 0.66 14 1.32 14 2 C16.64 2 19.28 2 22 2 C21.67 3.32 21.34 4.64 21 6 C21 5.34 21 4.68 21 4 C18.03 4 15.06 4 12 4 C12 4.99 12 5.98 12 7 C9.03 7 6.06 7 3 7 C3 6.34 3 5.68 3 5 C4.65 5 6.3 5 8 5 C8 4.34 8 3.68 8 3 C8.99 3 9.98 3 11 3 C11 2.34 11 1.68 11 1 C10.46890625 1.22816406 9.9378125 1.45632812 9.390625 1.69140625 C8.68421875 1.97886719 7.9778125 2.26632813 7.25 2.5625 C6.55390625 2.85253906 5.8578125 3.14257812 5.140625 3.44140625 C2.69987216 4.07831803 1.3596345 3.80248831 -1 3 C-0.67 2.01 -0.34 1.02 0 0 Z " fill="#CEA21B" transform="translate(17,46)"/>
<path d="M0 0 C3.96 0 7.92 0 12 0 C12 2.97 12 5.94 12 9 C10.02 9 8.04 9 6 9 C6 8.34 6 7.68 6 7 C5.34 7 4.68 7 4 7 C3.67 5.68 3.34 4.36 3 3 C2.67 4.32 2.34 5.64 2 7 C1.34 7 0.68 7 0 7 C0 4.69 0 2.38 0 0 Z M9 2 C8.67 2.99 8.34 3.98 8 5 C8.66 5 9.32 5 10 5 C9.67 4.01 9.34 3.02 9 2 Z " fill="#1D1D1B" transform="translate(253,84)"/>
<path d="M0 0 C0.66 0 1.32 0 2 0 C2 0.66 2 1.32 2 2 C4.31 2 6.62 2 9 2 C9 3.65 9 5.3 9 7 C8.01 7 7.02 7 6 7 C4.66018514 7.3062434 3.32488113 7.63451555 2 8 C1.67 10.31 1.34 12.62 1 15 C-0.65 15 -2.3 15 -4 15 C-2.68 14.67 -1.36 14.34 0 14 C-0.33 13.34 -0.66 12.68 -1 12 C-1.99 11.67 -2.98 11.34 -4 11 C-4 10.34 -4 9.68 -4 9 C-2.68 9 -1.36 9 0 9 C0 6.03 0 3.06 0 0 Z " fill="#B7B5B3" transform="translate(22,57)"/>
<path d="M0 0 C0.66 0 1.32 0 2 0 C2.33 0.99 2.66 1.98 3 3 C3.99 2.67 4.98 2.34 6 2 C6.99 2 7.98 2 9 2 C9 3.32 9 4.64 9 6 C5.98968256 6.93423645 5.13349732 7.04449911 2 6 C2 8.97 2 11.94 2 15 C1.01 15.33 0.02 15.66 -1 16 C-1.02685095 13.52076199 -1.04676547 11.0418116 -1.0625 8.5625 C-1.07506836 7.50192383 -1.07506836 7.50192383 -1.08789062 6.41992188 C-1.09653588 4.61306441 -1.05220011 2.80612397 -1 1 C-0.67 0.67 -0.34 0.34 0 0 Z " fill="#E5C34F" transform="translate(12,57)"/>
<path d="M0 0 C1.32 0.33 2.64 0.66 4 1 C4 1.99 4 2.98 4 4 C3.34 4 2.68 4 2 4 C2 5.65 2 7.3 2 9 C-1.27275026 9 -3.846632 8.70074844 -7 8 C-7.33 7.01 -7.66 6.02 -8 5 C-7.34 4.01 -6.68 3.02 -6 2 C-3.375 1.8125 -3.375 1.8125 -1 2 C-0.67 1.34 -0.34 0.68 0 0 Z M-5 4 C-5 4.99 -5 5.98 -5 7 C-4.34 7 -3.68 7 -3 7 C-3 6.01 -3 5.02 -3 4 C-3.66 4 -4.32 4 -5 4 Z " fill="#1D1D1B" transform="translate(120,82)"/>
<path d="M0 0 C0.90492187 0.02320312 1.80984375 0.04640625 2.7421875 0.0703125 C4.10730469 0.09738281 4.10730469 0.09738281 5.5 0.125 C6.19867188 0.14820312 6.89734375 0.17140625 7.6171875 0.1953125 C2.32306985 6.96001838 2.32306985 6.96001838 -1.3828125 8.1953125 C-2.3728125 8.1953125 -3.3628125 8.1953125 -4.3828125 8.1953125 C-4.5078125 5.3203125 -4.5078125 5.3203125 -4.3828125 2.1953125 C-2.3828125 0.1953125 -2.3828125 0.1953125 0 0 Z " fill="#5284BE" transform="translate(27.3828125,75.8046875)"/>
<path d="M0 0 C3.75504711 1.45356662 3.75504711 1.45356662 4.8125 3.8125 C5.03322704 6.38764878 4.62444329 8.50222685 4 11 C3.01 11 2.02 11 1 11 C1 10.01 1 9.02 1 8 C0.34 8.66 -0.32 9.32 -1 10 C-2.5625 8.75 -2.5625 8.75 -4 7 C-3.83394098 4.34305562 -3.21086001 3.23616321 -1.4375 1.25 C-0.963125 0.8375 -0.48875 0.425 0 0 Z " fill="#C9C5C2" transform="translate(5,74)"/>
<path d="M0 0 C0.66 0 1.32 0 2 0 C2 0.99 2 1.98 2 3 C3.65 3 5.3 3 7 3 C7 3.66 7 4.32 7 5 C5.68 5 4.36 5 3 5 C3.99 5.928125 3.99 5.928125 5 6.875 C7 9 7 9 7 11 C6.4225 10.835 5.845 10.67 5.25 10.5 C1.60994097 9.69109799 -1.47291292 9.99226083 -5 11 C-5 9 -5 9 -3 6.875 C-2.34 6.25625 -1.68 5.6375 -1 5 C-2.32 5 -3.64 5 -5 5 C-5 4.34 -5 3.68 -5 3 C-3.35 3 -1.7 3 0 3 C0 2.01 0 1.02 0 0 Z " fill="#1D1D1B" transform="translate(113,68)"/>
<path d="M0 0 C0 0.66 0 1.32 0 2 C1.65 2 3.3 2 5 2 C5 2.33 5 2.66 5 3 C3.82630859 2.98259766 3.82630859 2.98259766 2.62890625 2.96484375 C1.61699219 2.95582031 0.60507812 2.94679688 -0.4375 2.9375 C-1.95150391 2.92009766 -1.95150391 2.92009766 -3.49609375 2.90234375 C-5.94021067 2.71387324 -5.94021067 2.71387324 -7 4 C-8.68608966 4.07205511 -10.37500659 4.08386068 -12.0625 4.0625 C-12.98160156 4.05347656 -13.90070312 4.04445313 -14.84765625 4.03515625 C-15.55792969 4.02355469 -16.26820312 4.01195313 -17 4 C-16.67 3.01 -16.34 2.02 -16 1 C-14.08351538 0.83125293 -12.16680367 0.66508357 -10.25 0.5 C-9.18265625 0.4071875 -8.1153125 0.314375 -7.015625 0.21875 C-4.6820782 0.04947717 -2.33967818 0 0 0 Z " fill="#CC9220" transform="translate(28,71)"/>
<path d="M0 0 C0.33 0 0.66 0 1 0 C1.05441656 1.89551022 1.09298035 3.7914792 1.125 5.6875 C1.14820313 6.74324219 1.17140625 7.79898438 1.1953125 8.88671875 C0.99858729 12.02251859 0.33057654 14.17645373 -1 17 C-0.38125 17.268125 0.2375 17.53625 0.875 17.8125 C3 19 3 19 5 22 C4.625 24.1875 4.625 24.1875 4 26 C3.34 24.68 2.68 23.36 2 22 C1.01 22.33 0.02 22.66 -1 23 C-0.67 21.68 -0.34 20.36 0 19 C-1.32 19.33 -2.64 19.66 -4 20 C-3.79503906 19.47792969 -3.59007812 18.95585938 -3.37890625 18.41796875 C-1.13683951 12.29251368 -0.35212938 6.49617989 0 0 Z " fill="#665B59" transform="translate(41,55)"/>
<path d="M0 0 C5.875 0.875 5.875 0.875 7 2 C7.99 2 8.98 2 10 2 C10 3.32 10 4.64 10 6 C5.45194365 6.17835515 2.1205746 5.99785435 -2 4 C-1.01 3.67 -0.02 3.34 1 3 C0.67 2.01 0.34 1.02 0 0 Z " fill="#D2D1D0" transform="translate(13,84)"/>
<path d="M0 0 C2.64 0 5.28 0 8 0 C7.34 0.66 6.68 1.32 6 2 C8.97 2.495 8.97 2.495 12 3 C11.01 4.485 11.01 4.485 10 6 C8.0546875 6.29296875 8.0546875 6.29296875 5.875 6.1875 C4.59625 6.125625 3.3175 6.06375 2 6 C1.67 6.99 1.34 7.98 1 9 C0 6 0 6 0.9375 3.8125 C1.4634375 2.9153125 1.4634375 2.9153125 2 2 C1.34 2 0.68 2 0 2 C0 1.34 0 0.68 0 0 Z " fill="#BB5C10" transform="translate(15,40)"/>
<path d="M0 0 C0.66 0.33 1.32 0.66 2 1 C1 4 1 4 -1.109375 5.203125 C-1.98078125 5.54859375 -2.8521875 5.8940625 -3.75 6.25 C-5.04164062 6.78367187 -5.04164062 6.78367187 -6.359375 7.328125 C-9.30569086 8.07777933 -11.10144361 7.81326402 -14 7 C-13.34 5.68 -12.68 4.36 -12 3 C-10.68 3.33 -9.36 3.66 -8 4 C-8 4.66 -8 5.32 -8 6 C-7.34 6 -6.68 6 -6 6 C-5.67 5.34 -5.34 4.68 -5 4 C-3.35704805 2.63755204 -1.69175663 1.30135125 0 0 Z " fill="#E3E2E1" transform="translate(38,82)"/>
<path d="M0 0 C0 0.66 0 1.32 0 2 C-0.99 2 -1.98 2 -3 2 C-3 2.66 -3 3.32 -3 4 C-4.65 4 -6.3 4 -8 4 C-8 4.66 -8 5.32 -8 6 C-7.34 6.33 -6.68 6.66 -6 7 C-8.64 7 -11.28 7 -14 7 C-13.5 5.1875 -13.5 5.1875 -12 3 C-7.96199109 0.87426403 -4.57422506 0 0 0 Z " fill="#B85618" transform="translate(28,47)"/>
<path d="M0 0 C0.99 0.33 1.98 0.66 3 1 C2.875 3.25 2.875 3.25 2 6 C-3.08108108 10 -3.08108108 10 -6 10 C-6.33 9.01 -6.66 8.02 -7 7 C-6.01 6.67 -5.02 6.34 -4 6 C-4 5.34 -4 4.68 -4 4 C-2.68 3.67 -1.36 3.34 0 3 C0 2.01 0 1.02 0 0 Z " fill="#9D9691" transform="translate(36,78)"/>
<path d="M0 0 C0.66 0 1.32 0 2 0 C2 1.32 2 2.64 2 4 C2.99 4 3.98 4 5 4 C5 2.68 5 1.36 5 0 C5.66 0 6.32 0 7 0 C7 2.97 7 5.94 7 9 C6.34 9 5.68 9 5 9 C5 7.68 5 6.36 5 5 C4.01 5 3.02 5 2 5 C2 6.32 2 7.64 2 9 C1.34 9 0.68 9 0 9 C0 6.03 0 3.06 0 0 Z " fill="#1D1D1B" transform="translate(52,82)"/>
<path d="M0 0 C4.62 0 9.24 0 14 0 C14 0.66 14 1.32 14 2 C14.66 2.33 15.32 2.66 16 3 C14.35 3 12.7 3 11 3 C11 2.34 11 1.68 11 1 C10.46890625 1.22816406 9.9378125 1.45632812 9.390625 1.69140625 C8.68421875 1.97886719 7.9778125 2.26632813 7.25 2.5625 C6.55390625 2.85253906 5.8578125 3.14257812 5.140625 3.44140625 C2.69987216 4.07831803 1.3596345 3.80248831 -1 3 C-0.67 2.01 -0.34 1.02 0 0 Z " fill="#F8D117" transform="translate(17,46)"/>
<path d="M0 0 C2.64 0 5.28 0 8 0 C7.01 0.495 7.01 0.495 6 1 C6 1.66 6 2.32 6 3 C6.99 3.33 7.98 3.66 9 4 C4.05 4 -0.9 4 -6 4 C-6 3.67 -6 3.34 -6 3 C-4.02 3 -2.04 3 0 3 C0 2.01 0 1.02 0 0 Z " fill="#DD4C10" transform="translate(29,50)"/>
<path d="M0 0 C2.4375 0.6875 2.4375 0.6875 5 2 C5.8125 4.625 5.8125 4.625 6 7 C4.02 7.33 2.04 7.66 0 8 C0 5.36 0 2.72 0 0 Z " fill="#97908B" transform="translate(8,80)"/>
<path d="M0 0 C0.66 0 1.32 0 2 0 C2 0.66 2 1.32 2 2 C3.65 2 5.3 2 7 2 C7 2.99 7 3.98 7 5 C4.36 5.33 1.72 5.66 -1 6 C-1.042721 4.33388095 -1.04063832 2.66617115 -1 1 C-0.67 0.67 -0.34 0.34 0 0 Z " fill="#D6D6D6" transform="translate(15,66)"/>
<path d="M0 0 C0 1.32 0 2.64 0 4 C-2.31 4 -4.62 4 -7 4 C-6.625 2.0625 -6.625 2.0625 -6 0 C-3.50907189 -1.24546405 -2.58919267 -0.7767578 0 0 Z " fill="#A2A2A1" transform="translate(31,66)"/>
<path d="M0 0 C1.32 0 2.64 0 4 0 C4.042721 1.66611905 4.04063832 3.33382885 4 5 C3.67 5.33 3.34 5.66 3 6 C0.30917128 5.82364548 -2.32851446 5.38164079 -5 5 C-5 4.67 -5 4.34 -5 4 C-3.02 3.67 -1.04 3.34 1 3 C0.67 2.01 0.34 1.02 0 0 Z " fill="#CDA719" transform="translate(12,47)"/>
<path d="M0 0 C2.01822917 0.06510417 4.03645833 0.13020833 6.0546875 0.1953125 C6.0546875 1.5153125 6.0546875 2.8353125 6.0546875 4.1953125 C5.3946875 4.1953125 4.7346875 4.1953125 4.0546875 4.1953125 C4.0546875 3.5353125 4.0546875 2.8753125 4.0546875 2.1953125 C3.0646875 2.5253125 2.0746875 2.8553125 1.0546875 3.1953125 C-1.6328125 2.7578125 -1.6328125 2.7578125 -3.9453125 2.1953125 C-1.9453125 0.1953125 -1.9453125 0.1953125 0 0 Z " fill="#E14C0E" transform="translate(34.9453125,39.8046875)"/>
<path d="M0 0 C2.625 -0.1875 2.625 -0.1875 5 0 C5 1.32 5 2.64 5 4 C3.1875 4.625 3.1875 4.625 1 5 C0.01 4.34 -0.98 3.68 -2 3 C-1.34 2.01 -0.68 1.02 0 0 Z " fill="#949493" transform="translate(16,59)"/>
<path d="M0 0 C0.125 2.875 0.125 2.875 0 6 C-0.66 6.66 -1.32 7.32 -2 8 C-2.33 7.01 -2.66 6.02 -3 5 C-3.66 4.34 -4.32 3.68 -5 3 C-2.25 0 -2.25 0 0 0 Z " fill="#DAD6D3" transform="translate(41,74)"/>
<path d="M0 0 C0.99 0 1.98 0 3 0 C2.67 2.31 2.34 4.62 2 7 C2.66 7.33 3.32 7.66 4 8 C2.68 8 1.36 8 0 8 C0 5.36 0 2.72 0 0 Z " fill="#C1450F" transform="translate(4,46)"/>
<path d="M0 0 C2.31 0 4.62 0 7 0 C6.01 0.495 6.01 0.495 5 1 C3.86649466 3.01669827 3.86649466 3.01669827 3 5 C3 4.34 3 3.68 3 3 C2.01 3.33 1.02 3.66 0 4 C0 2.68 0 1.36 0 0 Z " fill="#EFEFEF" transform="translate(14,63)"/>
<path d="M0 0 C0.99 0.33 1.98 0.66 3 1 C2.67 2.32 2.34 3.64 2 5 C0.68 4.67 -0.64 4.34 -2 4 C-2 3.01 -2 2.02 -2 1 C-1.34 0.67 -0.68 0.34 0 0 Z " fill="#C6A015" transform="translate(14,41)"/>
<path d="M0 0 C2.31 0 4.62 0 7 0 C7.33 1.32 7.66 2.64 8 4 C6.68 3.67 5.36 3.34 4 3 C4 2.34 4 1.68 4 1 C3.01 1 2.02 1 1 1 C1 1.66 1 2.32 1 3 C0.34 2.67 -0.32 2.34 -1 2 C-0.67 1.34 -0.34 0.68 0 0 Z " fill="#96908C" transform="translate(19,85)"/>
<path d="M0 0 C0.66 0 1.32 0 2 0 C2 2.97 2 5.94 2 9 C1.34 9 0.68 9 0 9 C0 6.03 0 3.06 0 0 Z " fill="#1D1D1B" transform="translate(183,82)"/>
<path d="M0 0 C0.66 0 1.32 0 2 0 C2 2.97 2 5.94 2 9 C1.34 9 0.68 9 0 9 C0 6.03 0 3.06 0 0 Z " fill="#1D1D1B" transform="translate(108,82)"/>
<path d="M0 0 C2.475 0.495 2.475 0.495 5 1 C5 2.65 5 4.3 5 6 C3.35 6 1.7 6 0 6 C1.32 5.67 2.64 5.34 4 5 C3.67 4.34 3.34 3.68 3 3 C2.01 2.67 1.02 2.34 0 2 C0 1.34 0 0.68 0 0 Z " fill="#B3AA9F" transform="translate(18,66)"/>
<path d="M0 0 C1.32 0 2.64 0 4 0 C4 0.66 4 1.32 4 2 C5.65 2 7.3 2 9 2 C9 2.33 9 2.66 9 3 C6.03 3 3.06 3 0 3 C0 2.01 0 1.02 0 0 Z " fill="#DC9A1E" transform="translate(24,71)"/>
<path d="M0 0 C0 0.66 0 1.32 0 2 C-0.99 2 -1.98 2 -3 2 C-3 2.66 -3 3.32 -3 4 C-4.32 3.67 -5.64 3.34 -7 3 C-4.49955934 -0.00052879 -4.2621484 0 0 0 Z " fill="#B76411" transform="translate(28,47)"/>
<path d="M0 0 C2.31 0.33 4.62 0.66 7 1 C5.25 2.5625 5.25 2.5625 3 4 C0.75 3.6875 0.75 3.6875 -1 3 C-0.67 2.01 -0.34 1.02 0 0 Z " fill="#FDD301" transform="translate(17,46)"/>
<path d="M0 0 C0.144375 0.78375 0.28875 1.5675 0.4375 2.375 C0.87798925 4.96421018 0.87798925 4.96421018 2 7 C0.68 6.34 -0.64 5.68 -2 5 C-2 4.34 -2 3.68 -2 3 C-2.66 3 -3.32 3 -4 3 C-4 2.34 -4 1.68 -4 1 C-2 0 -2 0 0 0 Z " fill="#D9A417" transform="translate(9,42)"/>
</svg>
